<?xml version="1.0" encoding="UTF-8" standalone="no"?>
<!-- Created with Inkscape (http://www.inkscape.org/) -->
<svg
   xmlns:dc="http://purl.org/dc/elements/1.1/"
   xmlns:cc="http://creativecommons.org/ns#"
   xmlns:rdf="http://www.w3.org/1999/02/22-rdf-syntax-ns#"
   xmlns:svg="http://www.w3.org/2000/svg"
   xmlns="http://www.w3.org/2000/svg"
   xmlns:sodipodi="http://sodipodi.sourceforge.net/DTD/sodipodi-0.dtd"
   xmlns:inkscape="http://www.inkscape.org/namespaces/inkscape"
   width="960.81677pt"
   height="359.57599pt"
   id="svg2"
   sodipodi:version="0.32"
   inkscape:version="0.46"
   version="1.0"
   sodipodi:docname="WMD_symbols_variant-2_horizontal.svg"
   inkscape:output_extension="org.inkscape.output.svg.inkscape">
  <defs
     id="defs4">
    <inkscape:perspective
       sodipodi:type="inkscape:persp3d"
       inkscape:vp_x="0 : 224.73499 : 1"
       inkscape:vp_y="0 : 1000 : 0"
       inkscape:vp_z="1201.021 : 224.73499 : 1"
       inkscape:persp3d-origin="600.5105 : 149.82332 : 1"
       id="perspective23" />
  </defs>
  <sodipodi:namedview
     id="base"
     pagecolor="#ffffff"
     bordercolor="#666666"
     borderopacity="1.0"
     inkscape:pageopacity="0.0"
     inkscape:pageshadow="2"
     inkscape:zoom="0.24748737"
     inkscape:cx="-103.81177"
     inkscape:cy="306.83959"
     inkscape:document-units="px"
     inkscape:current-layer="layer1"
     inkscape:window-width="739"
     inkscape:window-height="701"
     inkscape:window-x="0"
     inkscape:window-y="22"
     showgrid="false" />
  <metadata
     id="metadata7">
    <rdf:RDF>
      <cc:Work
         rdf:about="">
        <dc:format>image/svg+xml</dc:format>
        <dc:type
           rdf:resource="http://purl.org/dc/dcmitype/StillImage" />
        <cc:license
           rdf:resource="http://creativecommons.org/licenses/publicdomain/" />
      </cc:Work>
      <cc:License
         rdf:about="http://creativecommons.org/licenses/publicdomain/">
        <cc:permits
           rdf:resource="http://creativecommons.org/ns#Reproduction" />
        <cc:permits
           rdf:resource="http://creativecommons.org/ns#Distribution" />
        <cc:permits
           rdf:resource="http://creativecommons.org/ns#DerivativeWorks" />
      </cc:License>
    </rdf:RDF>
  </metadata>
  <g
     inkscape:label="Layer 1"
     inkscape:groupmode="layer"
     id="layer1">
    <g
       id="g4599">
      <circle
         transform="matrix(0.828945,0,0,0.828945,765.7864,31.56393)"
         sodipodi:ry="200"
         sodipodi:rx="200"
         sodipodi:cy="240"
         sodipodi:cx="240"
         id="circle3848"
         style="font-size:12px;fill:#ffff00;fill-opacity:1;stroke:none;stroke-width:20"
         r="200"
         cy="240"
         cx="240" />
      <circle
         transform="matrix(0.828945,0,0,0.828945,765.7864,31.56393)"
         sodipodi:ry="200"
         sodipodi:rx="200"
         sodipodi:cy="240"
         sodipodi:cx="240"
         id="circle1738"
         style="font-size:12px;fill:none;fill-opacity:1;stroke:#000000;stroke-width:20"
         r="200"
         cy="240"
         cx="240" />
      <path
         d="M 995.51491,234.44023 C 995.51491,251.34853 981.79222,265.07121 964.88392,265.07121 C 947.97562,265.07121 934.25294,251.34853 934.25294,234.44023 C 934.25294,217.53193 947.97562,203.80925 964.88392,203.80925 C 981.79222,203.80925 995.51491,217.53193 995.51491,234.44023 z M 974.90624,193.99938 L 974.95806,168.94764 C 992.24398,164.47465 1005.0168,148.77394 1005.0167,130.09613 C 1005.0167,107.93975 987.04347,89.944432 964.88708,89.944432 C 964.71398,89.944432 964.53077,89.942246 964.35819,89.944432 C 964.18695,89.946604 964.02205,89.940117 963.85133,89.944432 C 963.76665,89.946576 963.67145,89.941767 963.58689,89.944432 C 942.02443,90.624277 924.73538,108.36978 924.73538,130.09613 C 924.73538,148.77394 937.53018,164.47465 954.8161,168.94764 L 954.8161,193.99938 C 957.38271,193.39412 962.13604,193.02743 964.86117,192.92406 C 964.94816,192.92076 971.69734,193.20369 974.90624,193.99938 z M 924.83412,246.05625 L 903.11278,258.53724 C 890.5961,245.8037 870.61251,242.59252 854.43706,251.93143 C 835.24908,263.00961 828.65132,287.57258 839.72952,306.76056 C 839.81606,306.91047 839.90578,307.07023 839.99396,307.2186 C 840.08146,307.36581 840.1583,307.51186 840.24739,307.65755 C 840.29159,307.72982 840.33503,307.81467 840.37961,307.88657 C 851.7496,326.22027 875.76218,332.32027 894.57774,321.45709 C 910.75319,312.11819 917.953,293.18721 913.18376,275.98068 L 934.87919,263.45481 C 933.07172,261.5347 930.37749,257.60153 928.92541,255.29319 C 928.87905,255.2195 925.74949,249.23308 924.83412,246.05625 z M 1004.8328,246.05625 L 1026.5541,258.53724 C 1039.0708,245.8037 1059.0544,242.59252 1075.2298,251.93143 C 1094.4178,263.00961 1101.0156,287.57258 1089.9374,306.76056 C 1089.8508,306.91047 1089.7611,307.07023 1089.6729,307.2186 C 1089.5854,307.36581 1089.5086,307.51186 1089.4195,307.65755 C 1089.3753,307.72982 1089.3319,307.81467 1089.2873,307.88657 C 1077.9173,326.22027 1053.9047,332.32027 1035.0892,321.45709 C 1018.9137,312.11819 1011.7139,293.18721 1016.4831,275.98068 L 994.78771,263.45481 C 996.59518,261.5347 999.28941,257.60153 1000.7415,255.29319 C 1000.7878,255.2195 1003.9174,249.23308 1004.8328,246.05625 z M 985.62531,270.4144 L 997.56609,277.33207 C 988.49688,284.25446 977.16965,288.36698 964.88708,288.36698 C 952.5871,288.36698 941.24516,284.24278 932.1695,277.3026 L 932.1695,277.30259 L 944.10529,270.39246 C 950.21981,273.93303 957.31877,275.96007 964.88708,275.96007 C 972.43973,275.96007 979.52259,273.94141 985.62531,270.4144 z M 1018.3461,241.55716 L 1006.4044,234.68736 C 1006.4048,234.60565 1006.4051,234.27203 1006.4051,234.19021 C 1006.4051,218.79165 998.01388,205.59783 985.55644,198.43002 L 985.55644,198.43002 L 985.5515,184.62264 C 1005.074,192.73545 1018.812,211.9931 1018.812,234.44206 C 1018.812,236.85389 1018.6534,239.22887 1018.3461,241.55716 z M 923.34751,234.64184 L 911.41947,241.49213 C 911.11779,239.18466 910.96216,236.83143 910.96216,234.44206 C 910.96216,211.99615 924.6885,192.73494 944.20304,184.61745 L 944.22456,198.40423 C 931.75312,205.57587 923.34703,219.03653 923.34704,234.44206 C 923.34704,234.5087 923.3472,234.57529 923.34751,234.64184 z "
         style="color:#000000;fill:#000000;fill-opacity:1;fill-rule:nonzero;stroke:#000000;stroke-width:5;stroke-linecap:butt;stroke-linejoin:miter;marker:none;marker-start:none;marker-mid:none;marker-end:none;stroke-miterlimit:4;stroke-dasharray:none;stroke-dashoffset:0;stroke-opacity:1;visibility:visible;display:inline;overflow:visible"
         id="path1350" />
    </g>
    <g
       id="g3512"
       transform="translate(369.9997,-369.9999)">
      <circle
         transform="matrix(0.828945,0,0,0.828945,25.7867,401.5638)"
         sodipodi:ry="200"
         sodipodi:rx="200"
         sodipodi:cy="240"
         sodipodi:cx="240"
         id="circle3850"
         style="font-size:12px;fill:#ffff00;fill-opacity:1;stroke:none;stroke-width:20"
         r="200"
         cy="240"
         cx="240" />
      <circle
         transform="matrix(0.828945,0,0,0.828945,25.7868,401.5638)"
         sodipodi:ry="200"
         sodipodi:rx="200"
         sodipodi:cy="240"
         sodipodi:cx="240"
         id="circle663"
         style="font-size:12px;fill:none;fill-opacity:1;stroke:#000000;stroke-width:20"
         r="200"
         cy="240"
         cx="240" />
      <path
         id="path7214"
         style="font-size:12px;fill:#000000;fill-opacity:1"
         d="M 221.9085,444.97278 C 221.90808,444.97346 221.90891,444.9959 221.9085,444.99656 C 221.91637,444.9944 221.92474,444.97568 221.9322,444.97278 C 221.9293,444.97278 221.91147,444.97265 221.9085,444.97278 z M 220.1285,445.04404 C 220.11184,445.04608 220.09766,445.06533 220.081,445.06773 C 220.14466,445.06382 220.20725,445.04774 220.27099,445.04404 C 220.25525,445.04421 220.239,445.0433 220.22342,445.04404 C 220.18885,445.04562 220.16199,445.03983 220.1285,445.04404 z M 228.76736,445.09147 C 228.89393,445.10077 229.02076,445.10517 229.1471,445.11522 C 229.02283,445.10767 228.89194,445.09845 228.76736,445.09147 z M 229.1471,445.11522 C 261.10715,447.65543 286.27268,474.44877 286.27268,507.05867 C 286.27268,540.26166 260.15379,567.34222 227.3671,569.0258 L 227.3671,581.74679 C 236.31813,583.16197 243.17334,590.9354 243.17334,600.28234 C 243.17334,602.57006 242.76152,604.75773 242.01042,606.78524 L 253.63969,613.50169 C 271.61155,586.35415 307.87052,577.49588 336.44443,593.99305 C 364.95035,610.45101 375.4758,646.15558 361.10305,675.25503 C 380.82855,636.86219 367.11174,589.27602 329.32453,567.45951 C 319.87008,562.00098 309.79665,558.67559 299.61066,557.3017 C 303.50968,547.79568 305.66254,537.38654 305.66254,526.4724 C 305.66254,483.15701 271.81713,447.69747 229.1471,445.11522 z M 218.72825,445.16268 C 176.2715,447.96692 142.63995,483.31011 142.63995,526.4724 C 142.63995,537.07585 144.66656,547.20962 148.35968,556.49472 C 138.47674,557.94164 128.67977,561.23405 119.5002,566.53383 C 81.96598,588.20428 68.21647,635.28985 87.36573,673.54633 C 73.53982,644.58622 84.14262,609.36044 112.40402,593.04374 C 141.15855,576.44229 177.66595,585.52223 195.51729,613.07445 L 206.74311,606.59534 C 206.03759,604.62311 205.67509,602.49611 205.67509,600.28234 C 205.67509,591.3323 211.95004,583.84651 220.34212,581.98411 L 220.34212,569.00217 C 187.84573,567.01179 162.05368,540.05309 162.05368,507.05867 C 162.05368,474.59798 186.97675,447.91112 218.72825,445.16268 z M 222.35944,523.19724 C 205.95752,523.57457 190.8369,529.15835 178.42949,538.24408 C 179.42066,539.7109 180.48569,541.13047 181.60966,542.49226 C 182.73379,543.85405 183.92217,545.16071 185.16973,546.40819 C 186.41721,547.65576 187.72379,548.84422 189.08566,549.96818 C 190.08695,550.79464 191.15969,551.53862 192.21841,552.29404 C 201.37701,546.2807 212.34471,542.75338 224.16322,542.75338 C 235.98158,542.75338 246.92556,546.2807 256.08416,552.29404 C 257.14289,551.53862 258.21563,550.79464 259.21691,549.96818 C 260.57879,548.84422 261.88537,547.65576 263.13284,546.40819 C 264.38049,545.16071 265.56887,543.85405 266.69292,542.49226 C 267.81688,541.13047 268.88183,539.7109 269.87308,538.24408 C 257.0173,528.82992 241.25068,523.19724 224.16322,523.19724 C 223.76268,523.19724 223.35186,523.1911 222.95272,523.19724 C 222.75791,523.20022 222.55391,523.19276 222.35944,523.19724 z M 147.6002,591.64348 C 145.87524,607.48396 148.88199,623.95551 157.42577,638.75368 C 165.96945,653.55184 178.72941,664.41442 193.31014,670.84082 C 194.08486,669.249 194.78127,667.60611 195.39866,665.95178 C 196.01606,664.29746 196.55587,662.62456 197.01245,660.92042 C 197.46912,659.21619 197.85914,657.48793 198.15167,655.74656 C 198.36678,654.46625 198.47786,653.1726 198.6027,651.87804 C 188.81568,646.9531 180.28036,639.21076 174.37114,628.97561 C 168.46193,618.74054 166.02947,607.49449 166.65789,596.55623 C 165.47441,596.017 164.29051,595.46749 163.0742,595.01356 C 161.41987,594.39625 159.74697,593.85644 158.04275,593.39977 C 156.33861,592.9431 154.61034,592.57679 152.86897,592.28426 C 151.12761,591.99172 149.3661,591.76849 147.6002,591.64348 z M 301.24825,592.56908 C 299.48226,592.69418 297.72091,592.91732 295.97955,593.20986 C 294.23811,593.50248 292.50984,593.8687 290.80561,594.32537 C 289.10154,594.78204 287.40486,595.32185 285.75054,595.93924 C 284.53414,596.39309 283.37403,596.96639 282.19063,597.50554 C 282.81888,608.44372 280.38652,619.68993 274.47729,629.925 C 268.56807,640.15999 260.03276,647.8787 250.2459,652.80364 C 250.37057,654.09812 250.48165,655.39185 250.69676,656.67216 C 250.9893,658.41352 251.35552,660.14179 251.81219,661.84602 C 252.26885,663.55016 252.80875,665.24685 253.42607,666.90109 C 254.04338,668.5555 254.73994,670.17451 255.51459,671.76634 C 270.09532,665.34002 282.85528,654.50115 291.39896,639.70299 C 299.94282,624.90482 302.97319,608.40956 301.24825,592.56908 z M 210.30301,612.5998 L 199.00607,619.15021 C 213.5306,648.28796 203.08746,684.10485 174.51364,700.60202 C 146.08041,717.01787 110.00737,708.37927 91.94614,681.5444 C 115.383,717.65756 163.31004,729.49581 201.02339,707.72191 C 210.15911,702.44742 217.86565,695.64775 224.04452,687.8574 C 230.34467,696.04664 238.31829,703.15882 247.82505,708.64751 C 285.58085,730.44579 333.56549,718.55946 356.97358,682.3513 C 338.94577,709.3023 302.82025,718.02114 274.33496,701.57512 C 245.58043,684.97359 235.19192,648.81326 250.1272,619.57736 L 238.3793,612.78971 C 234.94606,616.61231 229.96286,619.0315 224.42426,619.0315 C 218.79465,619.0315 213.74074,616.53232 210.30301,612.5998 z " />
    </g>
    <g
       id="g3712">
      <circle
         transform="matrix(0.828945,0,0,0.828945,25.7867,31.56393)"
         sodipodi:ry="200"
         sodipodi:rx="200"
         sodipodi:cy="240"
         sodipodi:cx="240"
         id="circle3852"
         style="font-size:12px;fill:#ffff00;fill-opacity:1;stroke:none;stroke-width:20"
         r="200"
         cy="240"
         cx="240" />
      <circle
         transform="matrix(0.828945,0,0,0.828945,25.7867,31.56393)"
         sodipodi:ry="200"
         sodipodi:rx="200"
         sodipodi:cy="240"
         sodipodi:cx="240"
         id="circle2840"
         style="font-size:12px;fill:none;fill-opacity:1;stroke:#000000;stroke-width:20"
         r="200"
         cy="240"
         cx="240" />
      <g
         style="fill:#000000;fill-opacity:1"
         transform="matrix(0.566972,0,0,0.566972,-112.21,-256.8342)"
         id="g2847">
        <path
           id="path2227"
           style="color:#000000;fill:#000000;fill-opacity:1;fill-rule:evenodd;stroke:none;stroke-width:1px;stroke-linecap:butt;stroke-linejoin:miter;marker:none;marker-start:none;marker-mid:none;marker-end:none;stroke-miterlimit:4;stroke-dasharray:none;stroke-dashoffset:0;stroke-opacity:1;visibility:visible;display:inline;overflow:visible"
           d="M 556.81695,927.69705 L 469.2857,1079.2908 C 548.96004,1125.2908 639.61135,1125.2908 719.2857,1079.2908 L 631.75445,927.69705 C 631.17531,928.03221 630.62449,928.40832 630.0357,928.7283 C 627.91036,929.88333 625.71617,930.93533 623.4732,931.88455 C 621.23023,932.83377 618.91495,933.68499 616.56695,934.4158 C 614.21895,935.14661 611.81988,935.75975 609.37945,936.25955 C 606.93902,936.75935 604.46221,937.12835 601.94195,937.38455 C 599.42169,937.64075 596.8732,937.7908 594.2857,937.7908 C 591.6982,937.7908 589.14971,937.64075 586.62945,937.38455 C 584.10919,937.12835 581.63238,936.75935 579.19195,936.25955 C 576.75152,935.75975 574.35245,935.14661 572.00445,934.4158 C 569.65645,933.68499 567.34117,932.83377 565.0982,931.88455 C 562.85523,930.93533 560.66104,929.88333 558.5357,928.7283 C 557.94691,928.40832 557.39609,928.03221 556.81695,927.69705 z " />
        <path
           id="path2189"
           style="color:#000000;fill:#000000;fill-opacity:1;fill-rule:evenodd;stroke:none;stroke-width:1px;stroke-linecap:butt;stroke-linejoin:miter;marker:none;marker-start:none;marker-mid:none;marker-end:none;stroke-miterlimit:4;stroke-dasharray:none;stroke-dashoffset:0;stroke-opacity:1;visibility:visible;display:inline;overflow:visible"
           d="M 469.2857,646.25955 C 389.61136,692.25955 344.28571,770.7908 344.2857,862.7908 L 519.2857,862.7908 C 519.2857,860.2033 519.4045,857.62357 519.6607,855.1033 C 519.9169,852.58303 520.31715,850.10623 520.81695,847.6658 C 521.31675,845.22537 521.92989,842.8263 522.6607,840.4783 C 523.39151,838.1303 524.24273,835.84627 525.19195,833.6033 C 526.14117,831.36033 527.19317,829.16614 528.3482,827.0408 C 529.50323,824.91546 530.74996,822.84842 532.0982,820.8533 C 533.44644,818.85818 534.88184,816.92435 536.4107,815.07205 C 537.93956,813.21975 539.55757,811.45643 541.25445,809.75955 C 542.95133,808.06267 544.7459,806.44466 546.5982,804.9158 C 548.4505,803.38694 550.35308,801.95154 552.3482,800.6033 C 553.78737,799.63075 555.3091,798.75748 556.81695,797.88455 L 469.2857,646.25955 z " />
        <path
           id="path2187"
           style="color:#000000;fill:#000000;fill-opacity:1;fill-rule:evenodd;stroke:none;stroke-width:1px;stroke-linecap:butt;stroke-linejoin:miter;marker:none;marker-start:none;marker-mid:none;marker-end:none;stroke-miterlimit:4;stroke-dasharray:none;stroke-dashoffset:0;stroke-opacity:1;visibility:visible;display:inline;overflow:visible"
           d="M 719.2857,646.25955 L 631.75445,797.88455 C 633.2623,798.75748 634.78403,799.63075 636.2232,800.6033 C 638.21832,801.95154 640.1209,803.38694 641.9732,804.9158 C 643.8255,806.44466 645.62007,808.06267 647.31695,809.75955 C 649.01383,811.45643 650.63184,813.21975 652.1607,815.07205 C 653.68956,816.92435 655.12496,818.85818 656.4732,820.8533 C 657.82144,822.84842 659.06817,824.91546 660.2232,827.0408 C 661.37823,829.16614 662.43023,831.36033 663.37945,833.6033 C 664.32867,835.84627 665.17989,838.1303 665.9107,840.4783 C 666.64151,842.8263 667.25465,845.22537 667.75445,847.6658 C 668.25425,850.10623 668.6545,852.58304 668.9107,855.1033 C 669.1669,857.62356 669.2857,860.2033 669.2857,862.7908 L 844.2857,862.7908 C 844.2857,770.79079 798.96003,692.25955 719.2857,646.25955 z " />
        <path
           id="path1307"
           style="color:#000000;fill:#000000;fill-opacity:1;fill-rule:evenodd;stroke:none;stroke-width:1px;stroke-linecap:butt;stroke-linejoin:miter;marker:none;marker-start:none;marker-mid:none;marker-end:none;stroke-miterlimit:4;stroke-dasharray:none;stroke-dashoffset:0;stroke-opacity:1;visibility:visible;display:inline;overflow:visible"
           d="M 644.2857,862.77797 C 644.2857,890.39222 621.89993,912.77799 594.28568,912.77799 C 566.67143,912.77799 544.28566,890.39222 544.28566,862.77797 C 544.28566,835.16373 566.67143,812.77795 594.28568,812.77795 C 621.89993,812.77795 644.2857,835.16373 644.2857,862.77797 L 644.2857,862.77797 z " />
      </g>
    </g>
  </g>
</svg>
